<svg width="548px" height="74px" viewBox="0 0 548 74" version="1.1" xmlns="http://www.w3.org/2000/svg" xmlns:xlink="http://www.w3.org/1999/xlink">
    <defs>
        <rect id="path-1" x="0" y="0" width="75.2535001" height="74"></rect>
        <ellipse id="path-3" cx="81.2079016" cy="75.3703704" rx="69.0457198" ry="67.8956229"></ellipse>
        <filter x="-10.1%" y="-10.3%" width="140.6%" height="140.5%" filterUnits="objectBoundingBox" id="filter-4">
            <feOffset dx="15" dy="14" in="SourceAlpha" result="shadowOffsetOuter1"></feOffset>
            <feGaussianBlur stdDeviation="6.5" in="shadowOffsetOuter1" result="shadowBlurOuter1"></feGaussianBlur>
            <feColorMatrix values="0 0 0 0 0   0 0 0 0 0   0 0 0 0 0  0 0 0 0.5 0" type="matrix" in="shadowBlurOuter1"></feColorMatrix>
        </filter>
    </defs>
    <g stroke="none" stroke-width="1" fill="none" fill-rule="evenodd">
        <g transform="translate(-686.000000, -523.000000)">
            <g transform="translate(686.000000, 523.000000)">
                <g >
                    <g id="Oval-Copy-2-+-Oval-Copy-3-Mask-Copy-Copy-Copy-Copy-Copy-Copy-Copy" transform="translate(38.000000, 37.000000) scale(1, -1) translate(-38.000000, -37.000000) ">
                        <mask id="mask-2" fill="white">
                            <use xlink:href="#path-1"></use>
                        </mask>
                        <g id="Mask"></g>
                        <ellipse id="Oval-Copy-2" fill="#011638" mask="url(#mask-2)" cx="-15.7094849" cy="18.9360269" rx="75.0001213" ry="73.7508418"></ellipse>
                        <g id="Oval-Copy-3" mask="url(#mask-2)">
                            <use fill="black" fill-opacity="1" filter="url(#filter-4)" xlink:href="#path-3"></use>
                            <use fill="#E00000" fill-rule="evenodd" xlink:href="#path-3"></use>
                        </g>
                    </g>
                    <g id="Group-2-Copy-2" transform="translate(104.898818, 6.040816)" fill="#383838">
                        <path d="M0.530031679,0.321341961 L39.815225,0.321341961 L39.815225,11.9282549 L12.9006883,11.9282549 L12.9006883,24.530046 L37.6420015,24.530046 L37.6420015,36.1369589 L13.0678593,36.1369589 L13.0678593,60.0140368 L0.530031679,60.0140368 L0.530031679,0.321341961 Z M63.553512,14.4154505 L63.553512,22.2915699 L64.3893671,22.2915699 C64.8351588,19.4727341 66.1446521,17.3171862 68.3178865,15.8248613 C70.4911208,14.3325365 73.3608615,13.5863853 76.9271948,13.5863853 C81.9980749,13.5863853 85.9265549,15.1201406 88.7127528,18.1876972 C91.4989506,21.2552538 92.8920286,25.5248969 92.8920286,30.9967546 L92.8920286,34.727548 L79.5183458,34.727548 L79.5183458,31.8258198 C79.5183458,29.3386118 78.7939452,27.4041456 77.3451224,26.0223634 C75.8962995,24.6405811 73.9181287,23.9497003 71.4105506,23.9497003 C69.1815923,23.9497003 67.426314,24.6543987 66.144663,26.0638166 C64.863012,27.4732345 64.2221961,29.393883 64.2221961,31.8258198 L64.2221961,60.0140368 L51.6843685,60.0140368 L51.6843685,14.4154505 L63.553512,14.4154505 Z M120.057322,60.843102 C116.881056,60.843102 113.997385,60.4009384 111.406221,59.5165977 C108.815057,58.6322571 106.600063,57.3748541 104.761172,55.744351 C102.922282,54.113848 101.501342,52.1793818 100.498311,49.9408946 C99.4952795,47.7024073 98.9937714,45.2566894 98.9937714,42.6036675 L98.9937714,31.7429133 C98.9937714,29.0898914 99.4952795,26.6441735 100.498311,24.4056862 C101.501342,22.167199 102.922282,20.2465504 104.761172,18.643683 C106.600063,17.0408156 108.815057,15.7972302 111.406221,14.9128896 C113.997385,14.028549 116.881056,13.5863853 120.057322,13.5863853 C123.233587,13.5863853 126.117259,14.028549 128.708423,14.9128896 C131.299587,15.7972302 133.514581,17.0408156 135.353472,18.643683 C137.192362,20.2465504 138.613302,22.167199 139.616333,24.4056862 C140.619364,26.6441735 141.120872,29.0898914 141.120872,31.7429133 L141.120872,42.6036675 C141.120872,45.2566894 140.619364,47.7024073 139.616333,49.9408946 C138.613302,52.1793818 137.192362,54.113848 135.353472,55.744351 C133.514581,57.3748541 131.299587,58.6322571 128.708423,59.5165977 C126.117259,60.4009384 123.233587,60.843102 120.057322,60.843102 Z M111.531599,42.6036675 C111.531599,44.8697904 112.297792,46.6660804 113.830201,47.9925913 C115.36261,49.3191023 117.438296,49.9823478 120.057322,49.9823478 C122.676348,49.9823478 124.752034,49.3191023 126.284443,47.9925913 C127.816852,46.6660804 128.583045,44.8697904 128.583045,42.6036675 L128.583045,31.7429133 C128.583045,29.4767904 127.816852,27.6805004 126.284443,26.3539894 C124.752034,25.0274785 122.676348,24.364233 120.057322,24.364233 C117.438296,24.364233 115.36261,25.0274785 113.830201,26.3539894 C112.297792,27.6805004 111.531599,29.4767904 111.531599,31.7429133 L111.531599,42.6036675 Z M150.231694,14.4154505 L162.100837,14.4154505 L162.100837,22.2915699 L162.936692,22.2915699 C163.32676,19.4727341 164.552669,17.3171862 166.614455,15.8248613 C168.676242,14.3325365 171.378813,13.5863853 174.72225,13.5863853 C179.458787,13.5863853 183.164374,15.0925053 185.839124,18.1047906 C188.513874,21.117076 189.851229,25.2761781 189.851229,30.582222 L189.851229,60.0140368 L177.313401,60.0140368 L177.313401,31.8258198 C177.313401,29.5044256 176.658655,27.6805004 175.349142,26.3539894 C174.039629,25.0274785 172.27042,24.364233 170.041461,24.364233 C167.812503,24.364233 166.043294,25.0274785 164.733781,26.3539894 C163.424268,27.6805004 162.769521,29.5044256 162.769521,31.8258198 L162.769521,60.0140368 L150.231694,60.0140368 L150.231694,14.4154505 Z M198.209781,14.4154505 L210.329681,14.4154505 L210.329681,0.321341961 L222.867509,0.321341961 L222.867509,14.4154505 L240.00254,14.4154505 L240.00254,25.6078308 L222.867509,25.6078308 L222.867509,44.2617979 C222.867509,45.6988515 223.271501,46.8180783 224.079499,47.619512 C224.887496,48.4209457 226.015889,48.8216565 227.464712,48.8216565 L239.166684,48.8216565 L239.166684,60.0140368 L226.210929,60.0140368 C221.251497,60.0140368 217.364809,58.6184577 214.55075,55.8272575 C211.73669,53.0360574 210.329681,49.1809427 210.329681,44.2617979 L210.329681,25.6078308 L198.209781,25.6078308 L198.209781,14.4154505 Z M252.12244,60.0140368 L252.12244,0.321341961 L290.15385,0.321341961 L290.15385,11.0991896 L264.660267,11.0991896 L264.660267,24.0326069 L287.228357,24.0326069 L287.228357,34.8104546 L264.660267,34.8104546 L264.660267,49.2361891 L290.15385,49.2361891 L290.15385,60.0140368 L252.12244,60.0140368 Z M300.685625,14.4154505 L312.554769,14.4154505 L312.554769,22.2915699 L313.390624,22.2915699 C313.780692,19.4727341 315.0066,17.3171862 317.068387,15.8248613 C319.130173,14.3325365 321.832745,13.5863853 325.176182,13.5863853 C329.912718,13.5863853 333.618306,15.0925053 336.293056,18.1047906 C338.967806,21.117076 340.305161,25.2761781 340.305161,30.582222 L340.305161,60.0140368 L327.767333,60.0140368 L327.767333,31.8258198 C327.767333,29.5044256 327.112586,27.6805004 325.803073,26.3539894 C324.49356,25.0274785 322.724351,24.364233 320.495393,24.364233 C318.266435,24.364233 316.497226,25.0274785 315.187713,26.3539894 C313.8782,27.6805004 313.223453,29.5044256 313.223453,31.8258198 L313.223453,60.0140368 L300.685625,60.0140368 L300.685625,14.4154505 Z M349.750324,31.4112872 C349.750324,28.702994 350.126455,26.2434585 350.878729,24.0326069 C351.631002,21.8217553 352.717603,19.9425596 354.138564,18.3949635 C355.559525,16.8473673 357.25908,15.6590524 359.23728,14.8299831 C361.215481,14.0009137 363.402613,13.5863853 365.798744,13.5863853 C369.086457,13.5863853 371.775098,14.3601717 373.864746,15.9077678 C375.954394,17.455364 377.222095,19.5832767 377.667887,22.2915699 L378.503742,22.2915699 L378.336571,19.4727482 C378.225123,18.6436789 378.155469,17.7731691 378.127607,16.8611928 C378.099745,15.9492165 378.085815,15.1339772 378.085815,14.4154505 L378.085815,0.321341961 L390.623642,0.321341961 L390.623642,60.0140368 L378.503742,60.0140368 L378.503742,52.0550109 L377.667887,52.0550109 C377.222095,54.8185754 375.954394,56.9741233 373.864746,58.5217195 C371.775098,60.0693156 369.086457,60.843102 365.798744,60.843102 C363.402613,60.843102 361.215481,60.414756 359.23728,59.558051 C357.25908,58.701346 355.559525,57.4853958 354.138564,55.9101641 C352.717603,54.3349323 351.631002,52.4281014 350.878729,50.1896141 C350.126455,47.9511269 349.750324,45.4225033 349.750324,42.6036675 L349.750324,31.4112872 Z M362.288152,31.8258198 L362.288152,42.1891349 C362.288152,44.5105291 362.97076,46.3897248 364.335997,47.8267783 C365.701234,49.2638318 367.637612,49.9823478 370.145191,49.9823478 C372.652769,49.9823478 374.603078,49.2914671 375.996177,47.9096848 C377.389276,46.5279026 378.085815,44.7592478 378.085815,42.6036675 L378.085815,31.8258198 C378.085815,29.5596969 377.361414,27.7495893 375.912591,26.3954427 C374.463768,25.0412961 372.541321,24.364233 370.145191,24.364233 C367.74906,24.364233 365.840543,25.0274785 364.419583,26.3539894 C362.998622,27.6805004 362.288152,29.5044256 362.288152,31.8258198 Z" id="FrontEnd-Copy"></path>
                        <path d="M412.567053,58.3862078 C411.50278,59.6687462 410.030723,60.3100058 408.150839,60.3100058 C406.420151,60.3100058 405.099776,59.8167292 404.189673,58.8301611 C403.27957,57.8435931 402.814579,56.3982927 402.794686,54.4942165 L402.794686,44.0021182 L407.106464,44.0021182 L407.106464,54.346232 C407.106464,56.0135319 407.872331,56.8471694 409.404089,56.8471694 C410.866221,56.8471694 411.8708,56.3440272 412.417857,55.3377279 L412.417857,44.0021182 L416.744554,44.0021182 L416.744554,60.0140368 L412.68641,60.0140368 L412.567053,58.3862078 Z M424.547527,60.0140368 L420.220831,60.0140368 L420.220831,44.0021182 L424.547527,44.0021182 L424.547527,60.0140368 Z M419.967197,39.8585533 C419.967197,39.2172841 420.183529,38.6894781 420.616201,38.2751196 C421.048873,37.860761 421.638193,37.6535848 422.384179,37.6535848 C423.120218,37.6535848 423.707052,37.860761 424.144697,38.2751196 C424.582342,38.6894781 424.801161,39.2172841 424.801161,39.8585533 C424.801161,40.5096882 424.579856,41.0424269 424.137237,41.4567855 C423.694619,41.871144 423.110272,42.0783202 422.384179,42.0783202 C421.658086,42.0783202 421.073739,41.871144 420.631121,41.4567855 C420.188503,41.0424269 419.967197,40.5096882 419.967197,39.8585533 Z M427.427019,51.8600931 C427.427019,50.2717186 427.735355,48.8560147 428.352037,47.612939 C428.968718,46.3698634 429.856428,45.407974 431.015193,44.7272421 C432.173958,44.0465101 433.519199,43.7061493 435.050957,43.7061493 C437.229236,43.7061493 439.007142,44.3671399 440.38473,45.6891411 C441.762317,47.0111422 442.530671,48.806669 442.689815,51.0757754 L442.719654,52.1708604 C442.719654,54.6274148 442.028384,56.5980548 440.645823,58.0828396 C439.263263,59.5676245 437.408272,60.3100058 435.080796,60.3100058 C432.75332,60.3100058 430.895843,59.5700909 429.508309,58.0902388 C428.120775,56.6103868 427.427019,54.5978183 427.427019,52.0524729 L427.427019,51.8600931 Z M431.738796,52.1708604 C431.738796,53.6901751 432.027239,54.8518415 432.604135,55.6558945 C433.181031,56.4599474 434.006576,56.8619678 435.080796,56.8619678 C436.125176,56.8619678 436.940775,56.4648802 437.527618,55.6706929 C438.11446,54.8765057 438.407877,53.6063184 438.407877,51.8600931 C438.407877,50.3703754 438.11446,49.2161081 437.527618,48.3972567 C436.940775,47.5784052 436.11523,47.1689857 435.050957,47.1689857 C433.99663,47.1689857 433.181031,47.5759389 432.604135,48.3898575 C432.027239,49.2037761 431.738796,50.4640978 431.738796,52.1708604 Z" id="uio-copy"></path>
                    </g>
                </g>
            </g>
        </g>
    </g>
</svg>
