<?xml version="1.0" encoding="UTF-8"?>
<svg width="27px" height="22px" viewBox="0 0 27 22" version="1.1" xmlns="http://www.w3.org/2000/svg" xmlns:xlink="http://www.w3.org/1999/xlink">
    <!-- Generator: Sketch 52.6 (67491) - http://www.bohemiancoding.com/sketch -->
    <title>meetup-icon</title>
    <desc>Created with Sketch.</desc>
    <g stroke-width="1" fill-rule="evenodd">
        <g id="Artboard-Copy" transform="translate(-700.000000, -1024.000000)">
            <g id="Group-5" transform="translate(700.000000, 1021.000000)">
                <g id="meetup-icon" transform="translate(0.000000, 3.000000)">
                    <path d="M22.1459478,21.7662574 C20.1703358,21.4182541 18.126971,20.1448082 17.7266132,18.0460092 C17.5017968,16.2197615 17.8528799,14.3457789 18.7660037,12.7443475 L21.5407915,7.5289168 C22.0843542,6.46334902 20.8232271,5.16372588 19.8438902,6.03219442 C18.6120199,7.20555085 18.1346702,8.89321312 17.3693708,10.3637583 C16.3746355,12.4009637 15.5708402,14.5490375 14.3559081,16.4692153 C13.7584511,17.4131359 12.7175207,18.4248093 11.5041285,17.9890352 C10.1567704,17.5763587 10.5140127,16.0026444 10.9544064,15.0294669 C11.7043074,12.8121004 12.9561956,10.7394787 13.2549241,8.38814631 C13.7476722,7.03924837 11.7612814,6.05529199 11.0775934,7.37185334 L8.42907231,13.6574714 C7.65607372,15.3974881 7.43279723,17.3222854 6.68443605,19.0469038 C5.98380983,20.4081205 4.18989875,20.5867416 2.83484146,20.4250587 C1.36891584,20.2279594 -0.0446552972,19.0469038 0.0169382162,17.4778091 C-0.137045567,15.2065482 0.890026269,13.0892712 1.40279227,10.9227194 C2.09571929,8.57138701 2.9179927,6.25085139 3.88809054,3.99960848 C4.61643383,2.51366497 5.77285205,0.742851456 7.63759567,0.772108375 C9.30062053,0.587327835 10.6325803,1.78840135 12.1385417,2.22879497 C13.9339926,2.52444383 14.6638757,0.134615511 16.4346892,0.279360267 C17.8005254,0.214687078 18.5519662,1.96086318 19.9116431,1.68677205 C21.4945964,1.16322719 23.4609693,0.916853131 24.8606819,2.01013799 C26.1079505,3.1865741 25.6983536,5.10213237 25.267199,6.56189864 C24.3032606,9.76476134 22.2137006,12.5549475 21.5900663,15.8671387 C21.2974971,17.0143179 21.6916956,18.6111297 23.1098862,18.6696435 C24.241667,18.835946 26.0047814,19.045364 26.0786936,20.4928115 C25.4904755,21.9618168 23.4702083,22.017251 22.1521071,21.7523989 L22.1459478,21.7662574 Z" id="Path"></path>
                </g>
            </g>
        </g>
    </g>
</svg>
