
<svg width="23px" height="23px" viewBox="0 0 23 23" version="1.1" xmlns="http://www.w3.org/2000/svg">
    <g stroke-width="1"  fill-rule="evenodd" stroke-linecap="round">
        <g id="Artboard-Copy" transform="translate(-884.000000, -1023.000000)">
            <g id="Group-3" transform="translate(885.000000, 1021.000000)">
                <g id="slack-icon" transform="translate(0.000000, 3.000000)">
                    <g id="Group" stroke-linejoin="round" stroke-width="0.790123">
                        <path d="M6.01709748,13.6433701 C6.01709748,12.381492 6.97127471,11.3656197 8.15650812,11.3656197 C9.34174188,11.3656197 10.2959188,12.381492 10.2959188,13.6433701 L10.2959188,19.2500701 C10.2959188,20.5119214 9.34174188,21.5278204 8.15650812,21.5278204 C6.97127471,21.5278204 6.01709748,20.5119214 6.01709748,19.2500701 L6.01709748,13.6433701 Z" id="Path"></path>
                        <path d="M13.6433477,15.644441 C12.3814968,15.644441 11.3656241,14.6902638 11.3656241,13.5050303 C11.3656241,12.3197969 12.3814968,11.3656197 13.6433477,11.3656197 L19.2501015,11.3656197 C20.5119528,11.3656197 21.5278252,12.3197969 21.5278252,13.5050303 C21.5278252,14.6902638 20.5119528,15.644441 19.2501015,15.644441 L13.6433477,15.644441 Z" id="Path"></path>
                        <path d="M11.3656241,2.41143682 C11.3656241,1.14958577 12.3198013,0.133713333 13.5050351,0.133713333 C14.6902685,0.133713333 15.6444457,1.14958577 15.6444457,2.41143682 L15.6444457,8.018164 C15.6444457,9.28004169 14.6902685,10.2959144 13.5050351,10.2959144 C12.3198013,10.2959144 11.3656241,9.28004169 11.3656241,8.018164 L11.3656241,2.41143682 Z" id="Path"></path>
                        <path d="M2.41144173,10.2959144 C1.14959054,10.2959144 0.133718112,9.34173714 0.133718112,8.15650338 C0.133718112,6.97126997 1.14959054,6.01709274 2.41144173,6.01709274 L8.0181684,6.01709274 C9.28004643,6.01709274 10.2959188,6.97126997 10.2959188,8.15650338 C10.2959188,9.34173714 9.28004643,10.2959144 8.0181684,10.2959144 L2.41144173,10.2959144 Z" id="Path"></path>
                    </g>
                    <g id="Group" transform="translate(0.133718, 0.133713)" stroke-width="0.79012328">
                        <path d="M11.2319063,19.2546965 C11.2306959,19.8224737 11.4557088,20.3673448 11.8571888,20.7688248 C12.2586688,21.1703048 12.8035398,21.3953177 13.371317,21.3941073 C14.5565506,21.3941073 15.5107278,20.4399301 15.5107278,19.2546965 C15.5119382,18.6869193 15.2869253,18.1420483 14.8854453,17.7405683 C14.4839653,17.3390883 13.9390942,17.1140754 13.371317,17.1152858 L11.2319015,17.115281 L11.2319063,19.2546965 Z" id="Path"></path>
                        <path d="M19.2546965,10.162201 L17.1152858,10.162201 L17.1152858,8.02279023 C17.1152858,6.83755668 18.069463,5.8833795 19.2546965,5.8833795 C20.4399301,5.8833795 21.3941073,6.83755668 21.3941073,8.02279023 C21.3941073,9.20802377 20.4399301,10.162201 19.2546965,10.162201 Z" id="Path"></path>
                        <path d="M2.13941073,11.2319063 L4.27882145,11.2319063 L4.27882145,13.371317 C4.27882145,14.5565506 3.32464427,15.5107278 2.13941073,15.5107278 C1.57163353,15.5119382 1.0267625,15.2869253 0.625282478,14.8854453 C0.223802459,14.4839653 -0.00121038878,13.9390942 5.93803977e-17,13.371317 C5.93803977e-17,12.1860835 0.954177184,11.2319063 2.13941073,11.2319063 Z" id="Path"></path>
                        <path d="M10.162201,2.13941073 L10.1622058,4.27882631 L8.02279023,4.27882145 C7.45501303,4.28003184 6.910142,4.055019 6.50866198,3.65353898 C6.10718196,3.25205896 5.88216911,2.70718793 5.8833795,2.13941073 C5.8833795,0.954177184 6.83755668,1.42513463e-15 8.02279023,1.42513463e-15 C8.59056743,-0.00121038878 9.13543846,0.223802459 9.53691848,0.625282478 C9.9383985,1.0267625 10.1634113,1.57163353 10.162201,2.13941073 Z" id="Path"></path>
                    </g>
                </g>
            </g>
        </g>
    </g>
</svg>
